<svg width="58" height="58" viewBox="0 0 58 58" fill="none" xmlns="http://www.w3.org/2000/svg">
<g filter="url(#filter0_d_325_992)">
<g clip-path="url(#clip0_325_992)">
<path d="M49.3125 0H8.6875C6.10938 0 4 2.10938 4 4.6875V45.3125C4 47.8906 6.10938 50 8.6875 50H49.3125C51.8906 50 54 47.8906 54 45.3125V4.6875C54 2.10938 51.8906 0 49.3125 0ZM22.75 40.625H16.5V18.75H22.75V40.625ZM19.625 15.625C18.7962 15.625 18.0013 15.2958 17.4153 14.7097C16.8292 14.1237 16.5 13.3288 16.5 12.5C16.5 11.6712 16.8292 10.8763 17.4153 10.2903C18.0013 9.70424 18.7962 9.375 19.625 9.375C20.4538 9.375 21.2487 9.70424 21.8347 10.2903C22.4208 10.8763 22.75 11.6712 22.75 12.5C22.75 13.3288 22.4208 14.1237 21.8347 14.7097C21.2487 15.2958 20.4538 15.625 19.625 15.625ZM44.625 40.625H38.375V28.125C38.375 27.2962 38.0458 26.5013 37.4597 25.9153C36.8737 25.3292 36.0788 25 35.25 25C34.4212 25 33.6263 25.3292 33.0403 25.9153C32.4542 26.5013 32.125 27.2962 32.125 28.125V40.625H25.875V18.75H32.125V22.6281C33.4125 20.8594 35.3875 18.75 37.5938 18.75C41.4812 18.75 44.625 22.2469 44.625 26.5625V40.625Z" fill="#E4E4E4"/>
</g>
</g>
<defs>
<filter id="filter0_d_325_992" x="0" y="0" width="58" height="58" filterUnits="userSpaceOnUse" color-interpolation-filters="sRGB">
<feFlood flood-opacity="0" result="BackgroundImageFix"/>
<feColorMatrix in="SourceAlpha" type="matrix" values="0 0 0 0 0 0 0 0 0 0 0 0 0 0 0 0 0 0 127 0" result="hardAlpha"/>
<feOffset dy="4"/>
<feGaussianBlur stdDeviation="2"/>
<feComposite in2="hardAlpha" operator="out"/>
<feColorMatrix type="matrix" values="0 0 0 0 0 0 0 0 0 0 0 0 0 0 0 0 0 0 0.25 0"/>
<feBlend mode="normal" in2="BackgroundImageFix" result="effect1_dropShadow_325_992"/>
<feBlend mode="normal" in="SourceGraphic" in2="effect1_dropShadow_325_992" result="shape"/>
</filter>
<clipPath id="clip0_325_992">
<rect x="4" width="50" height="50" rx="5" fill="white"/>
</clipPath>
</defs>
</svg>
