<svg width="87" height="53" viewBox="0 0 87 53" fill="none" xmlns="http://www.w3.org/2000/svg">
<g filter="url(#filter0_d_327_1003)">
<path d="M75.6539 0H30.6538C26.8462 0 23.7308 3.11538 23.7308 6.92308V38.0769C23.7308 39.913 24.4602 41.6739 25.7585 42.9723C27.0568 44.2706 28.8177 45 30.6538 45H75.6539C79.4962 45 82.5769 41.9192 82.5769 38.0769V6.92308C82.5769 5.08696 81.8475 3.32605 80.5492 2.02772C79.2509 0.729393 77.49 0 75.6539 0ZM75.6539 12.7038L53.1539 24.2308L30.6538 12.7038V6.92308L53.1539 18.3808L75.6539 6.92308V12.7038ZM21.3077 38.0769C21.3077 38.6654 21.4115 39.2192 21.4808 39.8077H7.46154C5.55077 39.8077 4 38.25 4 36.3462C4 34.4423 5.55077 32.8846 7.46154 32.8846H21.3077V38.0769ZM14.3846 5.19231H21.4808C21.4115 5.78077 21.3077 6.33462 21.3077 6.92308V12.1154H14.3846C12.4808 12.1154 10.9231 10.5577 10.9231 8.65385C10.9231 6.75 12.4808 5.19231 14.3846 5.19231ZM7.46154 22.5C7.46154 20.5962 9.01923 19.0385 10.9231 19.0385H21.3077V25.9615H10.9231C9.01923 25.9615 7.46154 24.4038 7.46154 22.5Z" fill="#E0FFA2"/>
</g>
<defs>
<filter id="filter0_d_327_1003" x="0" y="0" width="86.5769" height="53" filterUnits="userSpaceOnUse" color-interpolation-filters="sRGB">
<feFlood flood-opacity="0" result="BackgroundImageFix"/>
<feColorMatrix in="SourceAlpha" type="matrix" values="0 0 0 0 0 0 0 0 0 0 0 0 0 0 0 0 0 0 127 0" result="hardAlpha"/>
<feOffset dy="4"/>
<feGaussianBlur stdDeviation="2"/>
<feComposite in2="hardAlpha" operator="out"/>
<feColorMatrix type="matrix" values="0 0 0 0 0 0 0 0 0 0 0 0 0 0 0 0 0 0 0.25 0"/>
<feBlend mode="normal" in2="BackgroundImageFix" result="effect1_dropShadow_327_1003"/>
<feBlend mode="normal" in="SourceGraphic" in2="effect1_dropShadow_327_1003" result="shape"/>
</filter>
</defs>
</svg>
