<svg width="58" height="58" viewBox="0 0 58 58" fill="none" xmlns="http://www.w3.org/2000/svg">
<g filter="url(#filter0_d_325_991)">
<path d="M29 0C15.1942 0 4 11.4844 4 25.6362C4 36.9643 11.1652 46.5625 21.0982 49.9553C21.2375 49.9856 21.3798 50.0005 21.5223 50C22.4487 50 22.8058 49.3192 22.8058 48.7277C22.8058 48.1138 22.7835 46.5067 22.7723 44.3638C21.9454 44.5577 21.0994 44.6588 20.25 44.6652C15.4397 44.6652 14.346 40.9263 14.346 40.9263C13.2076 37.9687 11.567 37.1763 11.567 37.1763C9.39063 35.6473 11.5558 35.6027 11.7232 35.6027H11.7344C14.2455 35.8259 15.5625 38.2589 15.5625 38.2589C16.8125 40.4464 18.4866 41.0603 19.9821 41.0603C20.971 41.0405 21.9446 40.8123 22.8393 40.3906C23.0625 38.7388 23.7098 37.6116 24.4241 36.9643C18.8772 36.317 13.0402 34.1183 13.0402 24.2969C13.0402 21.4955 14.0112 19.2076 15.6071 17.4219C15.3504 16.7745 14.4911 14.1629 15.8527 10.6362C16.0353 10.5924 16.223 10.5736 16.4107 10.5804C17.3147 10.5804 19.3571 10.9263 22.7277 13.2701C26.8231 12.1242 31.1545 12.1242 35.25 13.2701C38.6205 10.9263 40.6629 10.5804 41.567 10.5804C41.7546 10.5736 41.9424 10.5924 42.125 10.6362C43.4866 14.1629 42.6272 16.7745 42.3705 17.4219C43.9665 19.2187 44.9375 21.5067 44.9375 24.2969C44.9375 34.1406 39.0893 36.3058 33.5201 36.942C34.4129 37.7344 35.2165 39.2969 35.2165 41.6853C35.2165 45.1116 35.183 47.8794 35.183 48.7165C35.183 49.3192 35.529 50 36.4554 50C36.6053 50.0006 36.7549 49.9856 36.9018 49.9553C46.846 46.5625 54 36.9531 54 25.6362C54 11.4844 42.8058 0 29 0Z" fill="#D4FA86"/>
</g>
<defs>
<filter id="filter0_d_325_991" x="0" y="0" width="58" height="58" filterUnits="userSpaceOnUse" color-interpolation-filters="sRGB">
<feFlood flood-opacity="0" result="BackgroundImageFix"/>
<feColorMatrix in="SourceAlpha" type="matrix" values="0 0 0 0 0 0 0 0 0 0 0 0 0 0 0 0 0 0 127 0" result="hardAlpha"/>
<feOffset dy="4"/>
<feGaussianBlur stdDeviation="2"/>
<feComposite in2="hardAlpha" operator="out"/>
<feColorMatrix type="matrix" values="0 0 0 0 0 0 0 0 0 0 0 0 0 0 0 0 0 0 0.25 0"/>
<feBlend mode="normal" in2="BackgroundImageFix" result="effect1_dropShadow_325_991"/>
<feBlend mode="normal" in="SourceGraphic" in2="effect1_dropShadow_325_991" result="shape"/>
</filter>
</defs>
</svg>
