<svg width="58" height="58" viewBox="0 0 58 58" fill="none" xmlns="http://www.w3.org/2000/svg">
<g filter="url(#filter0_d_327_1005)">
<path d="M54 11.375C53.9702 10.2965 53.8868 9.22018 53.75 8.15C53.563 7.21289 53.252 6.30489 52.825 5.45C52.3765 4.52373 51.7766 3.67879 51.05 2.95C50.3155 2.23019 49.4717 1.63112 48.55 1.175C47.6939 0.756662 46.7859 0.45401 45.85 0.275C44.7903 0.114839 43.7215 0.0229828 42.65 0H15.375C14.2965 0.029752 13.2202 0.113188 12.15 0.25C11.2129 0.43696 10.3049 0.748034 9.45 1.175C8.52373 1.62348 7.67879 2.22338 6.95 2.95C6.23019 3.68451 5.63112 4.52827 5.175 5.45C4.75666 6.30613 4.45401 7.21409 4.275 8.15C4.11484 9.20967 4.02298 10.2785 4 11.35V38.625C4.02975 39.7035 4.11319 40.7798 4.25 41.85C4.43696 42.7871 4.74803 43.6951 5.175 44.55C5.62348 45.4763 6.22338 46.3212 6.95 47.05C7.68451 47.7698 8.52827 48.3689 9.45 48.825C10.3061 49.2433 11.2141 49.546 12.15 49.725C13.2097 49.8852 14.2785 49.977 15.35 50H42.625C43.7035 49.9702 44.7798 49.8868 45.85 49.75C46.7871 49.563 47.6951 49.252 48.55 48.825C49.4763 48.3765 50.3212 47.7766 51.05 47.05C51.7698 46.3155 52.3689 45.4717 52.825 44.55C53.2433 43.6939 53.546 42.7859 53.725 41.85C53.8852 40.7903 53.977 39.7215 54 38.65V11.375ZM29.575 42.5C26.5724 42.4874 23.622 41.7132 21 40.25L11.5 42.75L14 33.45C12.3867 30.7416 11.5238 27.6524 11.5 24.5C11.51 20.9573 12.568 17.4968 14.5409 14.5543C16.5138 11.6117 19.3133 9.31883 22.5868 7.96429C25.8603 6.60975 29.4615 6.25418 32.9367 6.94235C36.4119 7.63052 39.6058 9.33165 42.1161 11.8315C44.6263 14.3314 46.3408 17.5181 47.0434 20.9905C47.746 24.4628 47.4054 28.0654 46.0645 31.3445C44.7236 34.6236 42.4423 37.4327 39.508 39.4178C36.5737 41.4029 33.1176 42.4753 29.575 42.5ZM29.575 9.675C26.9245 9.70533 24.3294 10.4375 22.0539 11.7968C19.7784 13.1562 17.9037 15.0943 16.6207 17.4138C15.3378 19.7333 14.6924 22.3513 14.7502 25.0013C14.808 27.6513 15.5671 30.2387 16.95 32.5L17.3 33.075L15.8 38.55L21.5 37L22.05 37.325C24.3239 38.6644 26.911 39.3801 29.55 39.4C33.5282 39.4 37.3436 37.8196 40.1566 35.0066C42.9696 32.1936 44.55 28.3782 44.55 24.4C44.55 20.4218 42.9696 16.6064 40.1566 13.7934C37.3436 10.9804 33.5282 9.4 29.55 9.4L29.575 9.675ZM38.325 30.975C37.9976 31.5212 37.5591 31.9925 37.038 32.3586C36.517 32.7246 35.9248 32.9772 35.3 33.1C34.3665 33.2737 33.4046 33.2136 32.5 32.925C31.6486 32.6582 30.8138 32.341 30 31.975C26.9094 30.4242 24.2736 28.0985 22.35 25.225C21.3072 23.8922 20.6733 22.2857 20.525 20.6C20.5101 19.8995 20.6426 19.2036 20.914 18.5576C21.1853 17.9116 21.5894 17.3298 22.1 16.85C22.2504 16.6795 22.4349 16.5424 22.6416 16.4477C22.8483 16.3529 23.0726 16.3026 23.3 16.3H24C24.275 16.3 24.65 16.3 25 17.075C25.35 17.85 26.275 20.175 26.4 20.4C26.4614 20.5199 26.4935 20.6527 26.4935 20.7875C26.4935 20.9222 26.4614 21.0551 26.4 21.175C26.291 21.4474 26.139 21.7006 25.95 21.925C25.725 22.2 25.475 22.525 25.275 22.725C25.075 22.925 24.825 23.175 25.075 23.625C25.7564 24.7722 26.5982 25.8161 27.575 26.725C28.6398 27.6659 29.8573 28.4183 31.175 28.95C31.625 29.175 31.9 29.15 32.15 28.95C32.4 28.75 33.275 27.65 33.575 27.2C33.875 26.75 34.175 26.825 34.575 26.975C34.975 27.125 37.2 28.2 37.65 28.425C38.1 28.65 38.375 28.75 38.5 28.95C38.6084 29.6043 38.5482 30.2755 38.325 30.9V30.975Z" fill="#D4FA86"/>
</g>
<defs>
<filter id="filter0_d_327_1005" x="0" y="0" width="58" height="58" filterUnits="userSpaceOnUse" color-interpolation-filters="sRGB">
<feFlood flood-opacity="0" result="BackgroundImageFix"/>
<feColorMatrix in="SourceAlpha" type="matrix" values="0 0 0 0 0 0 0 0 0 0 0 0 0 0 0 0 0 0 127 0" result="hardAlpha"/>
<feOffset dy="4"/>
<feGaussianBlur stdDeviation="2"/>
<feComposite in2="hardAlpha" operator="out"/>
<feColorMatrix type="matrix" values="0 0 0 0 0 0 0 0 0 0 0 0 0 0 0 0 0 0 0.25 0"/>
<feBlend mode="normal" in2="BackgroundImageFix" result="effect1_dropShadow_327_1005"/>
<feBlend mode="normal" in="SourceGraphic" in2="effect1_dropShadow_327_1005" result="shape"/>
</filter>
</defs>
</svg>
